<svg width="161" height="48" viewBox="0 0 161 48" fill="none" xmlns="http://www.w3.org/2000/svg">
<path d="M22.7499 2C10.5996 2 0.749939 11.8497 0.749939 24C0.749939 36.1503 10.5996 46 22.7499 46C33.651 46 42.7001 38.0716 44.4458 27.6667H44.2879C42.6597 33.9925 36.9173 38.6667 30.0833 38.6667C21.9831 38.6667 15.4166 32.1002 15.4166 24C15.4166 15.8998 21.9831 9.33333 30.0833 9.33333C36.9173 9.33333 42.6597 14.0075 44.2879 20.3333H44.4458C42.7001 9.92838 33.651 2 22.7499 2Z" fill="#A4BCFD"/>
<path d="M0.749939 24C0.749939 11.8497 10.5997 2 22.7499 2C33.6509 2 42.7001 9.92838 44.4458 20.3333H29.6212C27.993 14.0075 22.2507 9.33333 15.4166 9.33333C7.31643 9.33333 0.749939 15.8998 0.749939 24Z" fill="#3538CD"/>
<path d="M0.749939 24C0.749939 36.1503 10.5997 46 22.7499 46C33.6509 46 42.7001 38.0716 44.4458 27.6667H29.6212C27.993 33.9925 22.2507 38.6667 15.4166 38.6667C7.31643 38.6667 0.749939 32.1002 0.749939 24Z" fill="#3538CD"/>
<path d="M76.1888 20.5071C75.5624 15.983 72.0823 13.358 67.5681 13.358C62.2485 13.358 58.2414 17.2358 58.2414 23.8182C58.2414 30.3906 62.1988 34.2784 67.5681 34.2784C72.4104 34.2784 75.6221 31.1463 76.1888 27.2585L72.4701 27.2387C72.0028 29.625 70.0539 30.9673 67.6178 30.9673C64.3167 30.9673 61.9502 28.4915 61.9502 23.8182C61.9502 19.2244 64.2968 16.6691 67.6278 16.6691C70.1036 16.6691 72.0425 18.071 72.4701 20.5071H76.1888Z" fill="#101828"/>
<path d="M83.8028 34.3083C86.1991 34.3083 87.6309 33.1847 88.2872 31.902H88.4065V34H91.8667V23.7784C91.8667 19.7415 88.5755 18.5284 85.6622 18.5284C82.4505 18.5284 79.9846 19.9602 79.1892 22.7443L82.55 23.2216C82.9079 22.1776 83.9221 21.2827 85.6821 21.2827C87.3525 21.2827 88.2673 22.1378 88.2673 23.6392V23.6989C88.2673 24.733 87.1835 24.7827 84.4889 25.071C81.5258 25.3892 78.692 26.2742 78.692 29.7145C78.692 32.7174 80.8895 34.3083 83.8028 34.3083ZM84.7375 31.6634C83.2361 31.6634 82.1622 30.9773 82.1622 29.6548C82.1622 28.2727 83.3653 27.696 84.9761 27.4673C85.9207 27.3381 87.8099 27.0994 88.2773 26.7216V28.5213C88.2773 30.2216 86.9051 31.6634 84.7375 31.6634Z" fill="#101828"/>
<path d="M103.112 18.7273H100.1V15.0682H96.5003V18.7273H94.3326V21.5114H96.5003V30.0029C96.4804 32.8764 98.5684 34.2884 101.273 34.2088C102.297 34.179 103.003 33.9801 103.391 33.8509L102.784 31.037C102.585 31.0867 102.178 31.1762 101.73 31.1762C100.826 31.1762 100.1 30.858 100.1 29.4063V21.5114H103.112V18.7273Z" fill="#101828"/>
<path d="M110.518 34.3083C112.914 34.3083 114.346 33.1847 115.002 31.902H115.121V34H118.582V23.7784C118.582 19.7415 115.29 18.5284 112.377 18.5284C109.165 18.5284 106.699 19.9602 105.904 22.7443L109.265 23.2216C109.623 22.1776 110.637 21.2827 112.397 21.2827C114.067 21.2827 114.982 22.1378 114.982 23.6392V23.6989C114.982 24.733 113.898 24.7827 111.204 25.071C108.241 25.3892 105.407 26.2742 105.407 29.7145C105.407 32.7174 107.604 34.3083 110.518 34.3083ZM111.452 31.6634C109.951 31.6634 108.877 30.9773 108.877 29.6548C108.877 28.2727 110.08 27.696 111.691 27.4673C112.636 27.3381 114.525 27.0994 114.992 26.7216V28.5213C114.992 30.2216 113.62 31.6634 111.452 31.6634Z" fill="#101828"/>
<path d="M125.8 13.6364H122.201V34H125.8V13.6364Z" fill="#101828"/>
<path d="M136.164 34.2983C140.638 34.2983 143.482 31.1463 143.482 26.4233C143.482 21.6904 140.638 18.5284 136.164 18.5284C131.689 18.5284 128.845 21.6904 128.845 26.4233C128.845 31.1463 131.689 34.2983 136.164 34.2983ZM136.183 31.4148C133.708 31.4148 132.495 29.2074 132.495 26.4134C132.495 23.6193 133.708 21.3821 136.183 21.3821C138.62 21.3821 139.833 23.6193 139.833 26.4134C139.833 29.2074 138.62 31.4148 136.183 31.4148Z" fill="#101828"/>
<path d="M153.179 40.0455C157.305 40.0455 160.348 38.1563 160.348 34.2486V18.7273H156.798V21.2529H156.599C156.052 20.1492 154.909 18.5284 152.214 18.5284C148.685 18.5284 145.91 21.2926 145.91 26.3139C145.91 31.2955 148.685 33.7813 152.204 33.7813C154.819 33.7813 156.043 32.3793 156.599 31.2557H156.778V34.1492C156.778 36.3963 155.287 37.321 153.239 37.321C151.071 37.321 150.116 36.2969 149.679 35.402L146.437 36.1875C147.094 38.3253 149.291 40.0455 153.179 40.0455ZM153.209 30.9574C150.832 30.9574 149.579 29.108 149.579 26.2941C149.579 23.5199 150.812 21.4816 153.209 21.4816C155.525 21.4816 156.798 23.4006 156.798 26.2941C156.798 29.2074 155.506 30.9574 153.209 30.9574Z" fill="#101828"/>
</svg>
