<svg width="184" height="48" viewBox="0 0 184 48" fill="none" xmlns="http://www.w3.org/2000/svg">
<path d="M16.2142 33.4286C24.893 33.4286 31.9285 26.393 31.9285 17.7143C31.9285 16.7307 31.8381 15.7682 31.6652 14.8347C30.7317 14.6618 29.7692 14.5714 28.7856 14.5714C20.1069 14.5714 13.0714 21.6069 13.0714 30.2857C13.0714 31.2693 13.1617 32.2318 13.3346 33.1653C14.2681 33.3382 15.2306 33.4286 16.2142 33.4286Z" fill="#175CD3"/>
<path fill-rule="evenodd" clip-rule="evenodd" d="M13.3346 33.1653C6.03112 31.8127 0.499939 25.4095 0.499939 17.7143C0.499939 9.03553 7.53547 2 16.2142 2C23.9094 2 30.3127 7.53118 31.6653 14.8347C30.7317 14.6618 29.7692 14.5714 28.7857 14.5714C20.1069 14.5714 13.0714 21.607 13.0714 30.2857C13.0714 31.2693 13.1617 32.2318 13.3346 33.1653Z" fill="#1570EF"/>
<path fill-rule="evenodd" clip-rule="evenodd" d="M16.2141 33.4285C24.8929 33.4285 31.9284 26.393 31.9284 17.7142C31.9284 16.7306 31.8381 15.7681 31.6652 14.8346C38.9687 16.1872 44.4999 22.5905 44.4999 30.2856C44.4999 38.9644 37.4643 45.9999 28.7856 45.9999C21.0904 45.9999 14.6871 40.4687 13.3345 33.1652C14.2681 33.3381 15.2305 33.4285 16.2141 33.4285Z" fill="#2E90FA"/>
<path d="M74.7279 28.904C74.1679 30.7146 73.1879 32.068 71.7879 32.964C70.3879 33.8413 68.7546 34.28 66.8879 34.28C65.0586 34.28 63.4719 33.8973 62.1279 33.132C60.8026 32.3666 59.7759 31.2746 59.0479 29.856C58.3386 28.4373 57.9839 26.7386 57.9839 24.76C57.9839 22.7813 58.3479 21.0826 59.0759 19.664C59.8039 18.2453 60.8306 17.1533 62.1559 16.388C63.4813 15.6226 65.0399 15.24 66.8319 15.24C68.7173 15.24 70.3319 15.6413 71.6759 16.444C73.0386 17.228 73.9719 18.4226 74.4759 20.028L70.9759 21.512C70.6586 20.392 70.1733 19.5986 69.5199 19.132C68.8666 18.6466 68.0266 18.404 66.9999 18.404C65.4693 18.404 64.2466 18.9546 63.3319 20.056C62.4359 21.1386 61.9879 22.7066 61.9879 24.76C61.9879 26.7946 62.4173 28.3626 63.2759 29.464C64.1346 30.5653 65.3759 31.116 66.9999 31.116C68.0079 31.116 68.8759 30.8453 69.6039 30.304C70.3506 29.7627 70.8733 28.9413 71.1719 27.84L74.7279 28.904Z" fill="#101828"/>
<path d="M79.5612 17.984C77.9746 17.984 77.1812 17.3026 77.1812 15.94C77.1812 14.5586 77.9746 13.868 79.5612 13.868C81.1479 13.868 81.9412 14.5586 81.9412 15.94C81.9412 17.3026 81.1479 17.984 79.5612 17.984ZM81.4652 20V34H77.6292V20H81.4652Z" fill="#101828"/>
<path d="M85.5316 34V20H88.8636L89.1156 22.744C89.4702 21.792 90.0022 21.0546 90.7116 20.532C91.4396 19.9906 92.3542 19.72 93.4556 19.72C94.1089 19.72 94.6129 19.8226 94.9676 20.028L94.5196 23.248C94.3329 23.192 94.0996 23.1453 93.8196 23.108C93.5582 23.052 93.2129 23.024 92.7836 23.024C92.2049 23.024 91.6542 23.164 91.1316 23.444C90.6276 23.7053 90.2076 24.116 89.8716 24.676C89.5356 25.2173 89.3676 25.908 89.3676 26.748V34H85.5316Z" fill="#101828"/>
<path d="M103.427 19.72C105.293 19.72 106.74 20.1213 107.767 20.924C108.812 21.7266 109.503 22.6973 109.839 23.836L106.255 25.124C105.881 23.4253 104.957 22.576 103.483 22.576C102.419 22.576 101.588 22.9493 100.991 23.696C100.412 24.4426 100.123 25.5533 100.123 27.028C100.123 28.5213 100.421 29.632 101.019 30.36C101.635 31.0693 102.465 31.424 103.511 31.424C105.135 31.424 106.105 30.5933 106.423 28.932L109.895 30.052C109.577 31.3027 108.868 32.32 107.767 33.104C106.684 33.888 105.275 34.28 103.539 34.28C102.083 34.28 100.804 33.9907 99.7026 33.412C98.62 32.8333 97.78 32.0026 97.1826 30.92C96.5853 29.8373 96.2866 28.5306 96.2866 27C96.2866 25.4693 96.5853 24.1626 97.1826 23.08C97.7986 21.9973 98.6386 21.1666 99.7026 20.588C100.785 20.0093 102.027 19.72 103.427 19.72Z" fill="#101828"/>
<path d="M119.259 19.72C120.659 19.72 121.901 20.0093 122.983 20.588C124.066 21.1666 124.906 21.9973 125.503 23.08C126.119 24.1626 126.427 25.4693 126.427 27C126.427 28.5306 126.119 29.8373 125.503 30.92C124.906 32.0026 124.066 32.8333 122.983 33.412C121.901 33.9907 120.659 34.28 119.259 34.28C117.841 34.28 116.59 33.9907 115.507 33.412C114.443 32.8333 113.603 32.0026 112.987 30.92C112.39 29.8373 112.091 28.5306 112.091 27C112.091 25.4693 112.39 24.1626 112.987 23.08C113.603 21.9973 114.443 21.1666 115.507 20.588C116.59 20.0093 117.841 19.72 119.259 19.72ZM119.259 22.576C118.214 22.576 117.393 22.9493 116.795 23.696C116.217 24.424 115.927 25.5253 115.927 27C115.927 28.4746 116.217 29.5853 116.795 30.332C117.393 31.06 118.214 31.424 119.259 31.424C120.286 31.424 121.089 31.06 121.667 30.332C122.265 29.5853 122.563 28.4746 122.563 27C122.563 25.5253 122.265 24.424 121.667 23.696C121.089 22.9493 120.286 22.576 119.259 22.576Z" fill="#101828"/>
<path d="M136.021 19.72C137.421 19.72 138.662 20.0093 139.745 20.588C140.828 21.1666 141.668 21.9973 142.265 23.08C142.881 24.1626 143.189 25.4693 143.189 27C143.189 28.5306 142.881 29.8373 142.265 30.92C141.668 32.0026 140.828 32.8333 139.745 33.412C138.662 33.9907 137.421 34.28 136.021 34.28C134.602 34.28 133.352 33.9907 132.269 33.412C131.205 32.8333 130.365 32.0026 129.749 30.92C129.152 29.8373 128.853 28.5306 128.853 27C128.853 25.4693 129.152 24.1626 129.749 23.08C130.365 21.9973 131.205 21.1666 132.269 20.588C133.352 20.0093 134.602 19.72 136.021 19.72ZM136.021 22.576C134.976 22.576 134.154 22.9493 133.557 23.696C132.978 24.424 132.689 25.5253 132.689 27C132.689 28.4746 132.978 29.5853 133.557 30.332C134.154 31.06 134.976 31.424 136.021 31.424C137.048 31.424 137.85 31.06 138.429 30.332C139.026 29.5853 139.325 28.4746 139.325 27C139.325 25.5253 139.026 24.424 138.429 23.696C137.85 22.9493 137.048 22.576 136.021 22.576Z" fill="#101828"/>
<path d="M150.179 13.868V29.688C150.179 30.3413 150.291 30.7986 150.515 31.06C150.739 31.3213 151.112 31.452 151.635 31.452C151.952 31.452 152.213 31.4333 152.419 31.396C152.624 31.3587 152.885 31.284 153.203 31.172L152.867 33.692C152.549 33.8786 152.148 34.0186 151.663 34.112C151.196 34.224 150.729 34.28 150.263 34.28C148.9 34.28 147.901 33.9533 147.267 33.3C146.651 32.628 146.343 31.564 146.343 30.108V13.868H150.179Z" fill="#101828"/>
<path d="M161.836 34.28C159.633 34.28 157.869 33.6453 156.544 32.376C155.219 31.088 154.556 29.296 154.556 27C154.556 25.4693 154.855 24.1626 155.452 23.08C156.049 21.9973 156.88 21.1666 157.944 20.588C159.027 20.0093 160.259 19.72 161.64 19.72C163.059 19.72 164.263 20.0093 165.252 20.588C166.241 21.148 166.997 21.9226 167.52 22.912C168.043 23.8826 168.304 24.9933 168.304 26.244C168.304 26.6173 168.295 26.972 168.276 27.308C168.257 27.644 168.229 27.9426 168.192 28.204H158.308C158.457 29.2866 158.831 30.0986 159.428 30.64C160.044 31.1626 160.837 31.424 161.808 31.424C162.629 31.424 163.292 31.2653 163.796 30.948C164.3 30.6306 164.692 30.192 164.972 29.632L168.024 30.808C167.576 31.9093 166.792 32.768 165.672 33.384C164.552 33.9813 163.273 34.28 161.836 34.28ZM161.612 22.548C159.801 22.548 158.709 23.5466 158.336 25.544H164.636C164.524 24.5733 164.207 23.836 163.684 23.332C163.18 22.8093 162.489 22.548 161.612 22.548Z" fill="#101828"/>
<path d="M177.155 34.28C175.736 34.28 174.439 34.028 173.263 33.524C172.106 33.02 171.163 32.3106 170.435 31.396L172.647 29.156C173.095 29.828 173.692 30.3787 174.439 30.808C175.186 31.2373 176.072 31.452 177.099 31.452C177.827 31.452 178.406 31.3493 178.835 31.144C179.283 30.92 179.507 30.5746 179.507 30.108C179.507 29.8093 179.404 29.5573 179.199 29.352C178.994 29.128 178.583 28.9506 177.967 28.82L175.503 28.316C173.879 27.98 172.722 27.476 172.031 26.804C171.359 26.1133 171.023 25.2266 171.023 24.144C171.023 23.3786 171.247 22.66 171.695 21.988C172.162 21.316 172.852 20.7746 173.767 20.364C174.682 19.9346 175.82 19.72 177.183 19.72C180.02 19.72 182.055 20.588 183.287 22.324L180.991 24.564C180.58 23.9106 180.039 23.416 179.367 23.08C178.714 22.7253 178.023 22.548 177.295 22.548C175.652 22.548 174.831 23.0053 174.831 23.92C174.831 24.2186 174.962 24.48 175.223 24.704C175.484 24.9093 175.96 25.0866 176.651 25.236L179.507 25.824C180.888 26.104 181.878 26.58 182.475 27.252C183.072 27.9053 183.371 28.6986 183.371 29.632C183.371 30.976 182.83 32.0867 181.747 32.964C180.683 33.8413 179.152 34.28 177.155 34.28Z" fill="#101828"/>
</svg>
