<svg width="109" height="48" viewBox="0 0 109 48" fill="none" xmlns="http://www.w3.org/2000/svg">
<path d="M-23.7225 22.3182C-22.9002 19.25 -19.7463 16.0961 -16.678 15.2738L2.45093 10.1474C5.5192 9.32516 7.33995 11.1459 6.51769 14.2142L1.39132 33.3432C0.569056 36.4114 -2.58484 39.5653 -5.65311 40.3876L-24.7821 45.514C-27.8504 46.3362 -29.6711 44.5155 -28.8488 41.4472L-23.7225 22.3182Z" fill="#9E77ED"/>
<path d="M-31.3912 14.6493C-30.5689 11.5811 -27.415 8.42717 -24.3467 7.60491L-5.21773 2.47854C-2.14946 1.65628 -0.328713 3.47702 -1.15098 6.54529L-6.27734 25.6743C-7.09961 28.7425 -10.2535 31.8964 -13.3218 32.7187L-32.4508 37.8451C-35.519 38.6673 -37.3398 36.8466 -36.5175 33.7783L-31.3912 14.6493Z" fill="#6941C6"/>
<path d="M24.292 31.424H30.872V34H21.1V14.54H24.292V31.424Z" fill="#101828"/>
<path d="M32.4774 26.216C32.4774 24.6666 32.7947 23.2946 33.4294 22.1C34.0827 20.9053 34.9601 19.9813 36.0614 19.328C37.1814 18.656 38.4134 18.32 39.7574 18.32C40.9707 18.32 42.0254 18.5626 42.9214 19.048C43.8361 19.5146 44.5641 20.1026 45.1054 20.812V18.572H48.3254V34H45.1054V31.704C44.5641 32.432 43.8267 33.0386 42.8934 33.524C41.9601 34.0093 40.8961 34.252 39.7014 34.252C38.3761 34.252 37.1627 33.916 36.0614 33.244C34.9601 32.5533 34.0827 31.6013 33.4294 30.388C32.7947 29.156 32.4774 27.7653 32.4774 26.216ZM45.1054 26.272C45.1054 25.208 44.8814 24.284 44.4334 23.5C44.0041 22.716 43.4347 22.1186 42.7254 21.708C42.0161 21.2973 41.2507 21.092 40.4294 21.092C39.6081 21.092 38.8427 21.2973 38.1334 21.708C37.4241 22.1 36.8454 22.688 36.3974 23.472C35.9681 24.2373 35.7534 25.152 35.7534 26.216C35.7534 27.28 35.9681 28.2133 36.3974 29.016C36.8454 29.8186 37.4241 30.4346 38.1334 30.864C38.8614 31.2746 39.6267 31.48 40.4294 31.48C41.2507 31.48 42.0161 31.2746 42.7254 30.864C43.4347 30.4533 44.0041 29.856 44.4334 29.072C44.8814 28.2693 45.1054 27.336 45.1054 26.272Z" fill="#101828"/>
<path d="M66.406 18.572L56.942 41.252H53.638L56.774 33.748L50.698 18.572H54.254L58.594 30.332L63.102 18.572H66.406Z" fill="#101828"/>
<path d="M82.9548 25.908C82.9548 26.4866 82.9175 27.0093 82.8428 27.476H71.0548C71.1482 28.708 71.6055 29.6973 72.4268 30.444C73.2482 31.1906 74.2562 31.564 75.4508 31.564C77.1682 31.564 78.3815 30.8453 79.0908 29.408H82.5348C82.0682 30.8266 81.2188 31.9933 79.9868 32.908C78.7735 33.804 77.2615 34.252 75.4508 34.252C73.9762 34.252 72.6508 33.9253 71.4748 33.272C70.3175 32.6 69.4028 31.6666 68.7308 30.472C68.0775 29.2586 67.7508 27.8586 67.7508 26.272C67.7508 24.6853 68.0682 23.2946 68.7028 22.1C69.3562 20.8866 70.2615 19.9533 71.4188 19.3C72.5948 18.6466 73.9388 18.32 75.4508 18.32C76.9068 18.32 78.2042 18.6373 79.3428 19.272C80.4815 19.9066 81.3682 20.8026 82.0028 21.96C82.6375 23.0986 82.9548 24.4146 82.9548 25.908ZM79.6228 24.9C79.6042 23.724 79.1842 22.7813 78.3628 22.072C77.5415 21.3626 76.5242 21.008 75.3108 21.008C74.2095 21.008 73.2668 21.3626 72.4828 22.072C71.6988 22.7626 71.2322 23.7053 71.0828 24.9H79.6228Z" fill="#101828"/>
<path d="M89.2881 20.812C89.7548 20.028 90.3708 19.4213 91.1361 18.992C91.9201 18.544 92.8441 18.32 93.9081 18.32V21.624H93.0961C91.8454 21.624 90.8934 21.9413 90.2401 22.576C89.6054 23.2106 89.2881 24.312 89.2881 25.88V34H86.0961V18.572H89.2881V20.812Z" fill="#101828"/>
<path d="M102.442 34.252C101.229 34.252 100.137 34.0373 99.1662 33.608C98.2142 33.16 97.4582 32.5626 96.8982 31.816C96.3382 31.0506 96.0395 30.2013 96.0022 29.268H99.3062C99.3622 29.9213 99.6702 30.472 100.23 30.92C100.809 31.3493 101.528 31.564 102.386 31.564C103.282 31.564 103.973 31.396 104.458 31.06C104.962 30.7053 105.214 30.2573 105.214 29.716C105.214 29.1373 104.934 28.708 104.374 28.428C103.833 28.148 102.965 27.84 101.77 27.504C100.613 27.1866 99.6702 26.8786 98.9422 26.58C98.2142 26.2813 97.5795 25.824 97.0382 25.208C96.5155 24.592 96.2542 23.78 96.2542 22.772C96.2542 21.9506 96.4968 21.204 96.9822 20.532C97.4675 19.8413 98.1582 19.3 99.0542 18.908C99.9689 18.516 101.014 18.32 102.19 18.32C103.945 18.32 105.354 18.768 106.418 19.664C107.501 20.5413 108.08 21.7453 108.154 23.276H104.962C104.906 22.5853 104.626 22.0346 104.122 21.624C103.618 21.2133 102.937 21.008 102.078 21.008C101.238 21.008 100.594 21.1666 100.146 21.484C99.6982 21.8013 99.4742 22.2213 99.4742 22.744C99.4742 23.1546 99.6235 23.5 99.9222 23.78C100.221 24.06 100.585 24.284 101.014 24.452C101.444 24.6013 102.078 24.7973 102.918 25.04C104.038 25.3386 104.953 25.6466 105.662 25.964C106.39 26.2626 107.016 26.7106 107.538 27.308C108.061 27.9053 108.332 28.6986 108.35 29.688C108.35 30.5653 108.108 31.3493 107.622 32.04C107.137 32.7306 106.446 33.272 105.55 33.664C104.673 34.056 103.637 34.252 102.442 34.252Z" fill="#101828"/>
</svg>
