<svg width="170" height="48" viewBox="0 0 170 48" fill="none" xmlns="http://www.w3.org/2000/svg">
<rect x="0.25" y="19.2" width="9.59998" height="9.59999" fill="#039855"/>
<rect x="29.05" y="28.8" width="9.6" height="9.59999" transform="rotate(180 29.05 28.8)" fill="#027A48"/>
<path d="M9.84998 19.2L19.45 9.59998V19.2L9.84998 28.7999V19.2Z" fill="#A6F4C5"/>
<path d="M19.45 28.8L9.85 38.4L9.85 28.8L19.45 19.2L19.45 28.8Z" fill="#6CE9A6"/>
<path d="M0.25 19.2L19.45 0V9.59999L9.84998 19.2H0.25Z" fill="#32D583"/>
<path d="M29.05 28.8L9.84998 48L9.84998 38.4L19.45 28.8L29.05 28.8Z" fill="#12B76A"/>
<path d="M49.958 34.28C48.446 34.28 46.9806 34.0653 45.562 33.636C44.162 33.2066 43.0513 32.6373 42.23 31.928L43.49 29.1C44.2926 29.7346 45.2726 30.2573 46.43 30.668C47.606 31.06 48.782 31.256 49.958 31.256C51.414 31.256 52.4966 31.0226 53.206 30.556C53.934 30.0893 54.298 29.4733 54.298 28.708C54.298 28.148 54.0926 27.6906 53.682 27.336C53.29 26.9626 52.786 26.6733 52.17 26.468C51.554 26.2626 50.714 26.0293 49.65 25.768C48.1566 25.4133 46.9433 25.0586 46.01 24.704C45.0953 24.3493 44.302 23.7986 43.63 23.052C42.9766 22.2866 42.65 21.26 42.65 19.972C42.65 18.8893 42.9393 17.9093 43.518 17.032C44.1153 16.136 45.002 15.4266 46.178 14.904C47.3726 14.3813 48.8286 14.12 50.546 14.12C51.7406 14.12 52.9166 14.2693 54.074 14.568C55.2313 14.8666 56.23 15.296 57.07 15.856L55.922 18.684C55.0633 18.18 54.1673 17.7973 53.234 17.536C52.3006 17.2746 51.3953 17.144 50.518 17.144C49.0806 17.144 48.0073 17.3866 47.298 17.872C46.6073 18.3573 46.262 19.0013 46.262 19.804C46.262 20.364 46.458 20.8213 46.85 21.176C47.2606 21.5306 47.774 21.8106 48.39 22.016C49.006 22.2213 49.846 22.4546 50.91 22.716C52.366 23.052 53.5606 23.4066 54.494 23.78C55.4273 24.1346 56.2206 24.6853 56.874 25.432C57.546 26.1786 57.882 27.1866 57.882 28.456C57.882 29.5386 57.5833 30.5186 56.986 31.396C56.4073 32.2733 55.5206 32.9733 54.326 33.496C53.1313 34.0186 51.6753 34.28 49.958 34.28Z" fill="#101828"/>
<path d="M61.1553 19.048H64.6553V34H61.1553V19.048ZM62.9193 16.584C62.2847 16.584 61.7527 16.388 61.3233 15.996C60.894 15.5853 60.6793 15.0813 60.6793 14.484C60.6793 13.8866 60.894 13.392 61.3233 13C61.7527 12.5893 62.2847 12.384 62.9193 12.384C63.554 12.384 64.086 12.58 64.5153 12.972C64.9447 13.3453 65.1593 13.8213 65.1593 14.4C65.1593 15.016 64.9447 15.5386 64.5153 15.968C64.1047 16.3786 63.5727 16.584 62.9193 16.584Z" fill="#101828"/>
<path d="M73.8691 34.196C72.6558 34.196 71.4704 34.0373 70.3131 33.72C69.1558 33.4026 68.2318 33.0013 67.5411 32.516L68.8851 29.856C69.5571 30.304 70.3598 30.668 71.2931 30.948C72.2451 31.2093 73.1784 31.34 74.0931 31.34C76.1838 31.34 77.2291 30.7893 77.2291 29.688C77.2291 29.1653 76.9584 28.8013 76.4171 28.596C75.8944 28.3906 75.0451 28.1946 73.8691 28.008C72.6371 27.8213 71.6291 27.6066 70.8451 27.364C70.0798 27.1213 69.4078 26.7013 68.8291 26.104C68.2691 25.488 67.9891 24.6386 67.9891 23.556C67.9891 22.1373 68.5771 21.008 69.7531 20.168C70.9478 19.3093 72.5531 18.88 74.5691 18.88C75.5958 18.88 76.6224 19.0013 77.6491 19.244C78.6758 19.468 79.5158 19.776 80.1691 20.168L78.8251 22.828C77.5558 22.0813 76.1278 21.708 74.5411 21.708C73.5144 21.708 72.7304 21.8666 72.1891 22.184C71.6664 22.4826 71.4051 22.884 71.4051 23.388C71.4051 23.948 71.6851 24.3493 72.2451 24.592C72.8238 24.816 73.7104 25.0306 74.9051 25.236C76.0998 25.4226 77.0798 25.6373 77.8451 25.88C78.6104 26.1226 79.2638 26.5333 79.8051 27.112C80.3651 27.6906 80.6451 28.512 80.6451 29.576C80.6451 30.976 80.0384 32.096 78.8251 32.936C77.6118 33.776 75.9598 34.196 73.8691 34.196Z" fill="#101828"/>
<path d="M97.3858 19.048L90.3858 35.204C89.7325 36.828 88.9391 37.9666 88.0058 38.62C87.0725 39.292 85.9431 39.628 84.6178 39.628C83.8711 39.628 83.1338 39.5066 82.4058 39.264C81.6778 39.0213 81.0805 38.6853 80.6138 38.256L82.0138 35.68C82.3498 35.9973 82.7418 36.2493 83.1898 36.436C83.6565 36.6226 84.1231 36.716 84.5898 36.716C85.2058 36.716 85.7098 36.5573 86.1018 36.24C86.5125 35.9226 86.8858 35.3906 87.2218 34.644L87.4738 34.056L80.9498 19.048H84.5898L89.2938 30.108L94.0258 19.048H97.3858Z" fill="#101828"/>
<path d="M107.861 18.88C109.317 18.88 110.615 19.1973 111.753 19.832C112.911 20.4666 113.816 21.3626 114.469 22.52C115.123 23.6773 115.449 25.012 115.449 26.524C115.449 28.036 115.123 29.38 114.469 30.556C113.816 31.7133 112.911 32.6093 111.753 33.244C110.615 33.8786 109.317 34.196 107.861 34.196C105.845 34.196 104.249 33.524 103.073 32.18V39.432H99.5733V19.048H102.905V21.008C103.484 20.2986 104.193 19.7666 105.033 19.412C105.892 19.0573 106.835 18.88 107.861 18.88ZM107.469 31.2C108.757 31.2 109.812 30.7706 110.633 29.912C111.473 29.0533 111.893 27.924 111.893 26.524C111.893 25.124 111.473 23.9946 110.633 23.136C109.812 22.2773 108.757 21.848 107.469 21.848C106.629 21.848 105.873 22.044 105.201 22.436C104.529 22.8093 103.997 23.3506 103.605 24.06C103.213 24.7693 103.017 25.5906 103.017 26.524C103.017 27.4573 103.213 28.2786 103.605 28.988C103.997 29.6973 104.529 30.248 105.201 30.64C105.873 31.0133 106.629 31.2 107.469 31.2Z" fill="#101828"/>
<path d="M127.253 18.88C129.138 18.88 130.65 19.4306 131.789 20.532C132.927 21.6333 133.497 23.2666 133.497 25.432V34H129.997V25.88C129.997 24.5733 129.689 23.5933 129.073 22.94C128.457 22.268 127.579 21.932 126.441 21.932C125.153 21.932 124.135 22.324 123.389 23.108C122.642 23.8733 122.269 24.984 122.269 26.44V34H118.769V13.224H122.269V20.784C122.847 20.168 123.557 19.7013 124.397 19.384C125.255 19.048 126.207 18.88 127.253 18.88Z" fill="#101828"/>
<path d="M152.413 19.048V34H149.081V32.096C148.521 32.768 147.821 33.2906 146.981 33.664C146.141 34.0186 145.235 34.196 144.265 34.196C142.267 34.196 140.69 33.6453 139.533 32.544C138.394 31.424 137.825 29.772 137.825 27.588V19.048H141.325V27.112C141.325 28.456 141.623 29.464 142.221 30.136C142.837 30.7893 143.705 31.116 144.825 31.116C146.075 31.116 147.065 30.7333 147.793 29.968C148.539 29.184 148.913 28.064 148.913 26.608V19.048H152.413Z" fill="#101828"/>
<path d="M161.615 34.196C160.402 34.196 159.216 34.0373 158.059 33.72C156.902 33.4026 155.978 33.0013 155.287 32.516L156.631 29.856C157.303 30.304 158.106 30.668 159.039 30.948C159.991 31.2093 160.924 31.34 161.839 31.34C163.93 31.34 164.975 30.7893 164.975 29.688C164.975 29.1653 164.704 28.8013 164.163 28.596C163.64 28.3906 162.791 28.1946 161.615 28.008C160.383 27.8213 159.375 27.6066 158.591 27.364C157.826 27.1213 157.154 26.7013 156.575 26.104C156.015 25.488 155.735 24.6386 155.735 23.556C155.735 22.1373 156.323 21.008 157.499 20.168C158.694 19.3093 160.299 18.88 162.315 18.88C163.342 18.88 164.368 19.0013 165.395 19.244C166.422 19.468 167.262 19.776 167.915 20.168L166.571 22.828C165.302 22.0813 163.874 21.708 162.287 21.708C161.26 21.708 160.476 21.8666 159.935 22.184C159.412 22.4826 159.151 22.884 159.151 23.388C159.151 23.948 159.431 24.3493 159.991 24.592C160.57 24.816 161.456 25.0306 162.651 25.236C163.846 25.4226 164.826 25.6373 165.591 25.88C166.356 26.1226 167.01 26.5333 167.551 27.112C168.111 27.6906 168.391 28.512 168.391 29.576C168.391 30.976 167.784 32.096 166.571 32.936C165.358 33.776 163.706 34.196 161.615 34.196Z" fill="#101828"/>
</svg>
